<?xml version="1.0" encoding="utf-8"?>
<!-- Generator: Adobe Illustrator 22.1.0, SVG Export Plug-In . SVG Version: 6.00 Build 0)  -->
<svg version="1.1" id="Layer_1" xmlns="http://www.w3.org/2000/svg" xmlns:xlink="http://www.w3.org/1999/xlink" x="0px" y="0px"
	 viewBox="0 0 609.4 609.4" style="enable-background:new 0 0 609.4 609.4;" xml:space="preserve">
<g transform="translate(0.000000,512.000000) scale(0.100000,-0.100000)"
fill="#000000" stroke="none">
<path d="M110 3929 c0 -6 21 -95 46 -197 25 -103 47 -194 49 -202 2 -8 22 -89
45 -180 23 -91 43 -173 45 -183 3 -10 6 -26 9 -35 3 -9 8 -32 11 -51 3 -19 8
-37 10 -41 2 -3 6 -17 9 -31 3 -13 21 -89 41 -169 20 -80 38 -155 41 -167 2
-13 29 -121 58 -240 59 -236 156 -629 161 -653 2 -8 29 -118 60 -245 31 -126
58 -237 60 -245 2 -8 8 -34 14 -58 l12 -42 134 0 134 0 14 52 c9 29 19 69 23
88 4 19 9 40 10 45 1 6 19 74 39 152 20 79 38 151 40 160 2 10 45 182 95 383
51 201 94 375 96 387 2 12 9 34 14 48 5 14 7 25 5 25 -2 0 0 11 5 25 5 14 12
36 14 48 2 12 12 51 21 87 9 36 19 73 21 83 21 90 174 705 183 732 5 17 13 47
17 68 3 20 9 37 13 37 5 0 51 -169 67 -245 1 -5 19 -75 39 -155 20 -80 38
-152 40 -160 2 -8 29 -116 60 -240 31 -124 58 -234 61 -244 2 -10 8 -33 13
-50 6 -17 12 -42 15 -56 2 -14 14 -62 25 -107 51 -200 63 -249 66 -263 2 -8
38 -152 80 -320 42 -168 78 -312 80 -320 2 -8 15 -62 30 -120 15 -58 28 -112
29 -120 2 -12 27 -15 139 -18 l136 -3 11 41 c5 22 15 59 21 82 6 24 12 50 14
58 2 8 13 53 25 100 12 47 23 92 25 100 2 8 11 44 20 80 9 36 18 72 20 80 2 8
72 287 155 620 83 333 153 612 155 620 2 8 20 80 40 160 20 80 38 152 40 160
2 8 11 44 20 80 9 36 19 73 21 83 2 9 6 25 8 35 2 9 12 46 21 82 9 36 18 72
20 80 2 8 15 62 30 120 15 58 29 116 31 129 3 14 7 28 10 33 3 4 -53 8 -125 8
-127 0 -131 -1 -135 -22 -3 -13 -23 -97 -45 -188 -22 -91 -42 -176 -45 -190
-2 -14 -23 -101 -46 -195 -24 -93 -44 -179 -46 -190 -2 -11 -19 -85 -39 -165
-19 -80 -44 -183 -55 -230 -10 -47 -33 -141 -50 -210 -18 -69 -33 -134 -36
-145 -2 -11 -15 -69 -30 -130 -14 -60 -28 -117 -29 -125 -2 -8 -27 -109 -55
-225 -28 -115 -53 -219 -55 -230 -14 -72 -29 -125 -34 -125 -6 0 -32 95 -47
165 -1 6 -10 39 -19 75 -9 36 -18 72 -20 80 -2 8 -11 44 -20 80 -9 36 -18 72
-20 80 -2 8 -101 404 -220 880 -119 476 -219 874 -221 885 -2 11 -10 43 -17
70 l-13 50 -134 3 c-73 1 -137 -1 -141 -5 -6 -6 -81 -291 -133 -503 -2 -8 -27
-107 -56 -220 -28 -113 -53 -212 -55 -220 -2 -8 -27 -105 -55 -215 -28 -110
-53 -207 -55 -215 -2 -8 -23 -87 -45 -175 -23 -88 -43 -167 -45 -175 -2 -8
-15 -62 -30 -120 -15 -58 -28 -112 -30 -120 -4 -22 -95 -372 -102 -395 -5 -15
-9 -8 -19 30 -8 28 -16 61 -18 75 -3 14 -14 63 -26 110 -22 93 -29 125 -119
505 -33 143 -81 346 -107 450 -53 223 -47 196 -74 315 -12 52 -23 102 -25 110
-2 8 -24 102 -49 208 -25 107 -52 219 -60 250 -8 32 -17 68 -20 82 -3 14 -16
70 -28 125 l-23 100 -123 3 c-85 2 -122 -1 -122 -9z"/>
<path fill="#e1260e" d="M3287 3925 c-21 -6 -38 -22 -49 -45 -17 -32 -18 -119 -17 -1327 0
-1285 0 -1292 20 -1317 44 -56 9 -54 876 -55 873 0 850 -1 875 55 6 13 14 24
19 24 4 0 8 111 8 248 2 203 -1 254 -14 285 -30 72 -10 70 -548 71 -447 1
-485 2 -510 19 -16 10 -32 29 -37 43 -6 16 -10 396 -10 975 0 1029 2 991 -53
1021 -28 15 -513 18 -560 3z"/>
</g>
</svg>
